<svg width="13" height="9" viewBox="0 0 13 9" fill="none" xmlns="http://www.w3.org/2000/svg">
<path d="M12.3787 1.03332C11.9151 1.21068 11.4234 1.32716 10.92 1.37891C11.4506 1.10445 11.8478 0.672509 12.0374 0.163576C11.5394 0.419877 10.9935 0.599498 10.4244 0.696661C10.0422 0.342975 9.53553 0.10841 8.98324 0.0294299C8.43096 -0.04955 7.86397 0.0314815 7.37043 0.259927C6.87688 0.488372 6.48444 0.851431 6.25411 1.29266C6.02377 1.73389 5.96845 2.22857 6.09674 2.6998C5.08686 2.65603 4.09891 2.42907 3.19703 2.03366C2.29516 1.63826 1.49952 1.08324 0.861767 0.404646C0.636026 0.739965 0.517397 1.12115 0.518032 1.50916C0.518032 2.27071 0.966224 2.9435 1.64762 3.3374C1.24438 3.32642 0.850005 3.23225 0.497384 3.06272V3.09003C0.497505 3.59722 0.700448 4.08877 1.0718 4.48134C1.44316 4.8739 1.96007 5.14332 2.5349 5.24391C2.16056 5.33163 1.76805 5.34457 1.38709 5.28172C1.54916 5.71829 1.86504 6.1001 2.29051 6.37368C2.71598 6.64727 3.22973 6.79894 3.75983 6.80745C3.23298 7.16528 2.62974 7.42981 1.9846 7.58589C1.33946 7.74198 0.665078 7.78657 0 7.71711C1.16099 8.36281 2.51248 8.70561 3.89283 8.70449C8.56484 8.70449 11.1198 5.35735 11.1198 2.45453C11.1198 2.35999 11.1167 2.2644 11.1119 2.17092C11.6092 1.86008 12.0384 1.47503 12.3793 1.03384L12.3787 1.03332Z" fill="#2B2B2B"/>
</svg>
